HIERARCHY
ROOT Hips
{
	OFFSET 0.000000 0.000000 0.000000
	CHANNELS 6 Xposition Yposition Zposition Xrotation Yrotation Zrotation
	JOINT LeftUpLeg_virtual
	{
		OFFSET 0.000000 0.000000 0.000000
		CHANNELS 3 Xrotation Yrotation Zrotation
		JOINT LeftUpLeg
		{
			OFFSET 11.394100 -6.187798 -0.413800
			CHANNELS 3 Xrotation Yrotation Zrotation
			JOINT LeftLeg
			{
				OFFSET 0.430247 -32.302673 3.732800
				CHANNELS 3 Xrotation Yrotation Zrotation
				JOINT LeftFoot
				{
					OFFSET -0.430247 -48.264931 -6.423300
					CHANNELS 3 Xrotation Yrotation Zrotation
					JOINT LeftToeBase
					{
						OFFSET 4.230900 -16.068199 23.438400
						CHANNELS 3 Xrotation Yrotation Zrotation
						JOINT LeftToe_End
						{
							OFFSET 4.510700 0.695400 19.974600
							CHANNELS 3 Xrotation Yrotation Zrotation
							End Site
							{
								OFFSET 0 0 0
							}
						}
					}
				}
			}
		}
	}
	JOINT RightUpLeg_virtual
	{
		OFFSET 0.000000 0.000000 0.000000
		CHANNELS 3 Xrotation Yrotation Zrotation
		JOINT RightUpLeg
		{
			OFFSET -11.333700 -6.187798 -0.413800
			CHANNELS 3 Xrotation Yrotation Zrotation
			JOINT RightLeg
			{
				OFFSET -0.430392 -32.302628 3.733000
				CHANNELS 3 Xrotation Yrotation Zrotation
				JOINT RightFoot
				{
					OFFSET 0.430392 -48.264973 -6.423500
					CHANNELS 3 Xrotation Yrotation Zrotation
					JOINT RightToeBase
					{
						OFFSET -4.230900 -16.068199 23.438400
						CHANNELS 3 Xrotation Yrotation Zrotation
						JOINT RightToe_End
						{
							OFFSET -4.510700 0.695400 19.974600
							CHANNELS 3 Xrotation Yrotation Zrotation
							End Site
							{
								OFFSET 0 0 0
							}
						}
					}
				}
			}
		}
	}
	JOINT Spine_virtual
	{
		OFFSET 0.000000 0.000000 0.000000
		CHANNELS 3 Xrotation Yrotation Zrotation
		JOINT Spine
		{
			OFFSET -0.002400 12.777504 0.315300
			CHANNELS 3 Xrotation Yrotation Zrotation
			JOINT Spine1
			{
				OFFSET -0.002067 5.816869 0.032633
				CHANNELS 3 Xrotation Yrotation Zrotation
				JOINT Spine1_split
				{
					OFFSET -0.002067 5.816869 0.032633
					CHANNELS 3 Xrotation Yrotation Zrotation
					JOINT Spine2
					{
						OFFSET -0.002067 5.816869 0.032633
						CHANNELS 3 Xrotation Yrotation Zrotation
						JOINT Neck_virtual
						{
							OFFSET 0.000000 0.000000 0.000000
							CHANNELS 3 Xrotation Yrotation Zrotation
							JOINT Neck
							{
								OFFSET -0.003700 21.199493 -0.826900
								CHANNELS 3 Xrotation Yrotation Zrotation
								JOINT Head
								{
									OFFSET 0.000000 20.442200 4.834800
									CHANNELS 3 Xrotation Yrotation Zrotation
									JOINT HeadTop_End
									{
										OFFSET 0.000000 34.668396 4.968400
										CHANNELS 3 Xrotation Yrotation Zrotation
										End Site
										{
											OFFSET 0 0 0
										}
									}
								}
							}
						}
						JOINT LeftShoulder_virtual
						{
							OFFSET 0.000000 0.000000 0.000000
							CHANNELS 3 Xrotation Yrotation Zrotation
							JOINT LeftShoulder
							{
								OFFSET 3.288150 8.794197 -1.372250
								CHANNELS 3 Xrotation Yrotation Zrotation
								JOINT LeftShoulder_split
								{
									OFFSET 3.288150 8.794197 -1.372250
									CHANNELS 3 Xrotation Yrotation Zrotation
									JOINT LeftArm
									{
										OFFSET 11.953299 -2.279007 -0.146200
										CHANNELS 3 Xrotation Yrotation Zrotation
										JOINT LeftForeArm
										{
											OFFSET 18.448900 0.000000 0.000000
											CHANNELS 3 Xrotation Yrotation Zrotation
											JOINT LeftHand
											{
												OFFSET 29.527798 0.000000 0.000000
												CHANNELS 3 Xrotation Yrotation Zrotation
												End Site
												{
													OFFSET 0 0 0
												}
											}
										}
									}
								}
							}
						}
						JOINT RightShoulder_virtual
						{
							OFFSET 0.000000 0.000000 0.000000
							CHANNELS 3 Xrotation Yrotation Zrotation
							JOINT RightShoulder
							{
								OFFSET -3.249400 8.794197 -1.372250
								CHANNELS 3 Xrotation Yrotation Zrotation
								JOINT RightShoulder_split
								{
									OFFSET -3.249400 8.794197 -1.372250
									CHANNELS 3 Xrotation Yrotation Zrotation
									JOINT RightArm
									{
										OFFSET -11.953299 -2.279007 -0.146200
										CHANNELS 3 Xrotation Yrotation Zrotation
										JOINT RightForeArm
										{
											OFFSET -18.448900 0.000000 0.000000
											CHANNELS 3 Xrotation Yrotation Zrotation
											JOINT RightHand
											{
												OFFSET -29.527802 0.000000 0.000000
												CHANNELS 3 Xrotation Yrotation Zrotation
												End Site
												{
													OFFSET 0 0 0
												}
											}
										}
									}
								}
							}
						}
					}
				}
			}
		}
	}
}
MOTION
Frames: 6
Frame Time: 0.03333333
11.650130 87.845352 -9.575554 0.000000 0.000000 0.000000 57.576808 -6.219759 4.705162 -99.530268 -6.877496 5.399302 53.460198 10.012880 -4.399902 -8.446971 13.183507 -2.898107 -6.889722 -0.000001 0.000001 0.000000 0.000000 0.000000 57.576808 -6.219759 4.705162 -64.083581 6.909467 -4.826639 59.735482 2.386512 -5.511760 9.630473 -2.503082 6.252450 -50.827693 -6.977576 10.565107 0.000000 0.000000 0.000000 57.576808 -6.219759 4.705162 6.540171 0.542230 -0.987581 15.303520 1.438345 -1.025663 0.000000 0.000000 0.000000 0.000000 0.000000 0.000000 25.968647 1.556335 -0.351284 -24.974518 -1.109315 4.036045 -18.551922 4.794699 -4.512020 0.000000 0.000000 0.000000 25.968647 1.556335 -0.351284 3.421671 -11.322884 2.011318 0.000000 0.000000 0.000000 -28.741033 -37.156547 -25.888790 0.000006 -44.996648 -0.000004 0.000000 0.000000 0.000000 25.968647 1.556335 -0.351284 1.084095 32.109320 6.795040 0.000000 0.000000 0.000000 -35.612381 36.638699 9.333332 0.000006 24.893099 -0.000009 0.000000 0.000000 0.000000 
11.559861 89.558228 -9.138920 0.000000 0.000000 0.000000 55.097241 -6.889605 4.624068 -93.934444 -6.655987 5.982285 49.838497 10.110356 -4.396815 -7.852064 13.475717 -2.804819 -6.672995 0.000001 0.000001 0.000000 0.000000 0.000000 55.097241 -6.889605 4.624068 -68.966770 7.613403 -4.215000 63.604279 1.940187 -5.002702 6.950091 -2.517679 5.705733 -44.182810 -5.750310 10.979465 0.000000 0.000000 0.000000 55.097241 -6.889605 4.624068 6.433363 0.306046 -1.000950 15.063523 1.404745 -0.847226 0.000000 0.000000 0.000000 0.000000 0.000000 0.000000 25.668454 1.557015 -0.177842 -24.368129 -0.913411 3.954656 -18.158089 5.659348 -4.296259 0.000000 0.000000 0.000000 25.668454 1.557015 -0.177842 3.359789 -11.332868 0.850120 0.000000 0.000000 0.000000 -25.850576 -35.679727 -27.707648 -0.000016 -43.985278 0.000007 0.000000 0.000000 0.000000 25.668454 1.557015 -0.177842 0.611289 31.893640 8.610632 0.000000 0.000000 0.000000 -33.996826 35.443771 11.882231 -0.000005 24.919371 -0.000004 0.000000 0.000000 0.000000 
11.450049 91.075378 -8.655415 0.000000 0.000000 0.000000 52.440222 -7.751129 4.478649 -88.437740 -6.355726 6.782946 46.705322 10.034246 -4.438356 -7.446587 13.824841 -2.718531 -6.547595 0.000008 0.000001 0.000000 0.000000 0.000000 52.440222 -7.751129 4.478649 -72.215570 7.715081 -4.379213 64.404838 -0.163412 -4.420333 4.395209 -2.505203 5.088014 -36.015516 -4.771031 13.136853 0.000000 0.000000 0.000000 52.440222 -7.751129 4.478649 6.347463 0.143065 -0.930547 14.862688 1.352665 -0.606152 0.000000 0.000000 0.000000 0.000000 0.000000 0.000000 25.397843 1.548556 0.060528 -23.787322 -0.699830 3.812285 -17.607300 6.465523 -4.232234 0.000000 0.000000 0.000000 25.397843 1.548556 0.060528 3.282053 -11.154453 -0.322867 0.000000 0.000000 0.000000 -23.304167 -34.650144 -30.083339 0.000013 -41.915915 -0.000000 0.000000 0.000000 0.000000 25.397843 1.548556 0.060528 0.383117 31.571569 9.612375 0.000000 0.000000 0.000000 -32.161906 33.923692 14.344982 0.000009 24.743682 0.000018 0.000000 0.000000 0.000000 
11.308684 92.539154 -8.088718 0.000000 0.000000 0.000000 49.841875 -8.696006 4.140087 -83.005247 -6.007652 7.761950 43.614009 9.921082 -4.480827 -7.078465 14.067569 -2.655560 -6.397555 -0.000001 0.000003 0.000000 0.000000 0.000000 49.841875 -8.696006 4.140087 -73.759390 7.003766 -4.970321 62.413722 -2.771593 -3.746249 1.618132 -2.461813 3.787835 -26.099459 -2.914506 15.562936 0.000000 0.000000 0.000000 49.841875 -8.696006 4.140087 6.232210 0.055395 -0.788811 14.598353 1.342921 -0.303597 0.000000 0.000000 0.000000 0.000000 0.000000 0.000000 25.054394 1.591056 0.352062 -23.262072 -0.523336 3.642462 -17.013871 7.039134 -4.179062 0.000000 0.000000 0.000000 25.054394 1.591056 0.352062 3.185949 -10.858425 -1.510812 0.000000 0.000000 0.000000 -21.370308 -33.790397 -32.751317 0.000001 -39.584344 -0.000011 0.000000 0.000000 0.000000 25.054394 1.591056 0.352062 0.370546 30.945917 9.971297 0.000000 0.000000 0.000000 -30.635628 32.079944 17.167371 0.000013 24.089835 -0.000009 0.000000 0.000000 0.000000 
11.081217 93.922447 -7.453362 0.000000 0.000000 0.000000 47.456561 -9.591770 3.642183 -77.824050 -5.682489 8.727573 40.532887 9.829855 -4.385077 -6.667907 14.288138 -2.745513 -6.177534 0.000002 0.000001 0.000000 0.000000 0.000000 47.456561 -9.591770 3.642183 -73.792155 5.857805 -5.553755 58.174299 -2.856514 -3.085555 -0.918603 -2.494730 3.830633 -19.703404 -0.918474 11.648504 0.000000 0.000000 0.000000 47.456561 -9.591770 3.642183 6.026931 0.011019 -0.640530 14.142139 1.325229 -0.038993 0.000000 0.000000 0.000000 0.000000 0.000000 0.000000 24.509794 1.618868 0.606509 -22.735482 -0.432709 3.671196 -16.351801 7.613684 -4.017351 0.000000 0.000000 0.000000 24.509794 1.618868 0.606509 3.110100 -10.528953 -2.364155 0.000000 0.000000 0.000000 -19.965398 -32.730396 -35.749818 0.000008 -37.322117 -0.000014 0.000000 0.000000 0.000000 24.509794 1.618868 0.606509 0.278578 30.262663 10.663067 0.000000 0.000000 0.000000 -29.109833 29.813977 19.562251 0.000001 23.471621 -0.000005 0.000000 0.000000 0.000000 
10.756436 95.241234 -6.767250 0.000000 0.000000 0.000000 44.878933 -10.434971 3.194920 -72.421800 -5.174381 9.580864 37.407457 9.774479 -4.176380 -6.235593 14.531591 -2.975722 -5.976378 0.000007 -0.000000 0.000000 0.000000 0.000000 44.878933 -10.434971 3.194920 -71.797904 4.854403 -5.872959 51.312862 -0.434428 -2.715033 -1.872319 -2.555548 5.116496 -17.001975 -0.135205 4.446213 0.000000 0.000000 0.000000 44.878933 -10.434971 3.194920 5.827101 0.013344 -0.495151 13.694038 1.268939 0.141102 0.000000 0.000000 0.000000 0.000000 0.000000 0.000000 23.965015 1.592473 0.784297 -22.176560 -0.331580 3.730400 -15.411562 8.275023 -3.993371 0.000000 0.000000 0.000000 23.965015 1.592473 0.784297 3.041431 -10.411233 -3.090811 0.000000 0.000000 0.000000 -18.573929 -31.593843 -38.305968 -0.000002 -35.261763 -0.000001 0.000000 0.000000 0.000000 23.965015 1.592473 0.784297 0.212396 29.657296 11.250802 0.000000 0.000000 0.000000 -27.771725 27.488844 21.814764 -0.000007 23.160716 -0.000008 0.000000 0.000000 0.000000 
